<mxfile host="Electron" modified="2024-06-20T18:27:15.436Z" agent="Mozilla/5.0 (Windows NT 10.0; Win64; x64) AppleWebKit/537.36 (KHTML, like Gecko) draw.io/24.5.3 Chrome/124.0.6367.207 Electron/30.0.6 Safari/537.36" etag="Ar45m2t2V_AIKPqZPstf" version="24.5.3" type="device">
  <diagram name="PÃ¡gina-1" id="N-2LCgwWoT87mJx9ufOB">
    <mxGraphModel dx="2876" dy="1206" grid="1" gridSize="10" guides="1" tooltips="1" connect="1" arrows="1" fold="1" page="1" pageScale="1" pageWidth="827" pageHeight="1169" math="0" shadow="0">
      <root>
        <mxCell id="0" />
        <mxCell id="1" parent="0" />
        <mxCell id="bQiC65SGVC0BOYGLnJeZ-61" style="edgeStyle=orthogonalEdgeStyle;rounded=0;orthogonalLoop=1;jettySize=auto;html=1;entryX=0.065;entryY=0.5;entryDx=0;entryDy=0;entryPerimeter=0;endArrow=none;endFill=0;" edge="1" parent="1" source="bQiC65SGVC0BOYGLnJeZ-22" target="bQiC65SGVC0BOYGLnJeZ-39">
          <mxGeometry relative="1" as="geometry" />
        </mxCell>
        <mxCell id="bQiC65SGVC0BOYGLnJeZ-2" value="VPC" style="sketch=0;outlineConnect=0;gradientColor=none;html=1;whiteSpace=wrap;fontSize=12;fontStyle=0;shape=mxgraph.aws4.group;grIcon=mxgraph.aws4.group_vpc;strokeColor=#B6BABF;fillColor=none;verticalAlign=top;align=left;spacingLeft=30;fontColor=#B6BABF;dashed=0;" vertex="1" parent="1">
          <mxGeometry x="-560" y="80" width="1280" height="840" as="geometry" />
        </mxCell>
        <mxCell id="bQiC65SGVC0BOYGLnJeZ-1" value="AWS Cloud" style="sketch=0;outlineConnect=0;gradientColor=none;html=1;whiteSpace=wrap;fontSize=12;fontStyle=0;shape=mxgraph.aws4.group;grIcon=mxgraph.aws4.group_aws_cloud;strokeColor=#858B94;fillColor=none;verticalAlign=top;align=left;spacingLeft=30;fontColor=#858B94;dashed=0;" vertex="1" parent="1">
          <mxGeometry x="-600" y="40" width="1360" height="920" as="geometry" />
        </mxCell>
        <mxCell id="bQiC65SGVC0BOYGLnJeZ-3" value="Subnet" style="sketch=0;outlineConnect=0;gradientColor=none;html=1;whiteSpace=wrap;fontSize=12;fontStyle=0;shape=mxgraph.aws4.group;grIcon=mxgraph.aws4.group_subnet;strokeColor=#E8E8E8;fillColor=none;verticalAlign=top;align=left;spacingLeft=30;fontColor=#E8E8E8;dashed=0;" vertex="1" parent="1">
          <mxGeometry x="-522" y="160" width="1183" height="640" as="geometry" />
        </mxCell>
        <mxCell id="bQiC65SGVC0BOYGLnJeZ-40" value="Auto Scaling Group" style="sketch=0;outlineConnect=0;gradientColor=none;html=1;whiteSpace=wrap;fontSize=12;fontStyle=0;shape=mxgraph.aws4.groupCenter;grIcon=mxgraph.aws4.group_auto_scaling_group;grStroke=0;strokeColor=#B6BABF;fillColor=#47515E;verticalAlign=top;align=center;fontColor=#B6BABF;dashed=0;spacingTop=25;" vertex="1" parent="1">
          <mxGeometry x="-205" y="245" width="310" height="325" as="geometry" />
        </mxCell>
        <mxCell id="bQiC65SGVC0BOYGLnJeZ-39" value="Availability zone" style="sketch=0;outlineConnect=0;gradientColor=none;html=1;whiteSpace=wrap;fontSize=12;fontStyle=0;shape=mxgraph.aws4.group;grIcon=mxgraph.aws4.group_availability_zone;strokeColor=#E8E8E8;fillColor=none;verticalAlign=top;align=left;spacingLeft=30;fontColor=#E8E8E8;dashed=1;" vertex="1" parent="1">
          <mxGeometry x="-230" y="200" width="460" height="560" as="geometry" />
        </mxCell>
        <mxCell id="bQiC65SGVC0BOYGLnJeZ-4" value="Amazon EC2" style="sketch=0;outlineConnect=0;fontColor=#232F3E;gradientColor=none;strokeColor=#ffffff;fillColor=#232F3E;dashed=0;verticalLabelPosition=middle;verticalAlign=bottom;align=center;html=1;whiteSpace=wrap;fontSize=10;fontStyle=1;spacing=3;shape=mxgraph.aws4.productIcon;prIcon=mxgraph.aws4.ec2;" vertex="1" parent="1">
          <mxGeometry x="-170" y="330" width="80" height="100" as="geometry" />
        </mxCell>
        <mxCell id="bQiC65SGVC0BOYGLnJeZ-26" style="edgeStyle=orthogonalEdgeStyle;rounded=0;orthogonalLoop=1;jettySize=auto;html=1;endArrow=none;endFill=0;" edge="1" parent="1" source="bQiC65SGVC0BOYGLnJeZ-6" target="bQiC65SGVC0BOYGLnJeZ-22">
          <mxGeometry relative="1" as="geometry" />
        </mxCell>
        <mxCell id="bQiC65SGVC0BOYGLnJeZ-6" value="Elastic Load Balancing" style="sketch=0;outlineConnect=0;fontColor=#232F3E;gradientColor=none;strokeColor=#ffffff;fillColor=#232F3E;dashed=0;verticalLabelPosition=middle;verticalAlign=bottom;align=center;html=1;whiteSpace=wrap;fontSize=10;fontStyle=1;spacing=3;shape=mxgraph.aws4.productIcon;prIcon=mxgraph.aws4.elastic_load_balancing;" vertex="1" parent="1">
          <mxGeometry x="-483" y="425" width="80" height="110" as="geometry" />
        </mxCell>
        <mxCell id="bQiC65SGVC0BOYGLnJeZ-14" style="edgeStyle=orthogonalEdgeStyle;rounded=0;orthogonalLoop=1;jettySize=auto;html=1;endArrow=none;endFill=0;" edge="1" parent="1" source="bQiC65SGVC0BOYGLnJeZ-9" target="bQiC65SGVC0BOYGLnJeZ-13">
          <mxGeometry relative="1" as="geometry" />
        </mxCell>
        <mxCell id="bQiC65SGVC0BOYGLnJeZ-9" value="Users" style="sketch=0;outlineConnect=0;fontColor=#232F3E;gradientColor=none;strokeColor=#232F3E;fillColor=#ffffff;dashed=0;verticalLabelPosition=bottom;verticalAlign=top;align=center;html=1;fontSize=12;fontStyle=0;aspect=fixed;shape=mxgraph.aws4.resourceIcon;resIcon=mxgraph.aws4.users;" vertex="1" parent="1">
          <mxGeometry x="-473" y="830" width="60" height="60" as="geometry" />
        </mxCell>
        <mxCell id="bQiC65SGVC0BOYGLnJeZ-10" value="Amazon DynamoDB" style="sketch=0;outlineConnect=0;fontColor=#232F3E;gradientColor=none;strokeColor=#ffffff;fillColor=#232F3E;dashed=0;verticalLabelPosition=middle;verticalAlign=bottom;align=center;html=1;whiteSpace=wrap;fontSize=10;fontStyle=1;spacing=3;shape=mxgraph.aws4.productIcon;prIcon=mxgraph.aws4.dynamodb;" vertex="1" parent="1">
          <mxGeometry x="-100" y="610" width="80" height="110" as="geometry" />
        </mxCell>
        <mxCell id="bQiC65SGVC0BOYGLnJeZ-11" value="Amazon RDS" style="sketch=0;outlineConnect=0;fontColor=#232F3E;gradientColor=none;strokeColor=#ffffff;fillColor=#232F3E;dashed=0;verticalLabelPosition=middle;verticalAlign=bottom;align=center;html=1;whiteSpace=wrap;fontSize=10;fontStyle=1;spacing=3;shape=mxgraph.aws4.productIcon;prIcon=mxgraph.aws4.rds;" vertex="1" parent="1">
          <mxGeometry x="20" y="615" width="80" height="100" as="geometry" />
        </mxCell>
        <mxCell id="bQiC65SGVC0BOYGLnJeZ-60" style="edgeStyle=orthogonalEdgeStyle;rounded=0;orthogonalLoop=1;jettySize=auto;html=1;endArrow=none;endFill=0;" edge="1" parent="1" source="bQiC65SGVC0BOYGLnJeZ-12" target="bQiC65SGVC0BOYGLnJeZ-6">
          <mxGeometry relative="1" as="geometry" />
        </mxCell>
        <mxCell id="bQiC65SGVC0BOYGLnJeZ-12" value="Amazon Route 53" style="sketch=0;outlineConnect=0;fontColor=#232F3E;gradientColor=none;strokeColor=#ffffff;fillColor=#232F3E;dashed=0;verticalLabelPosition=middle;verticalAlign=bottom;align=center;html=1;whiteSpace=wrap;fontSize=10;fontStyle=1;spacing=3;shape=mxgraph.aws4.productIcon;prIcon=mxgraph.aws4.route_53;" vertex="1" parent="1">
          <mxGeometry x="-483" y="610" width="80" height="110" as="geometry" />
        </mxCell>
        <mxCell id="bQiC65SGVC0BOYGLnJeZ-15" style="edgeStyle=orthogonalEdgeStyle;rounded=0;orthogonalLoop=1;jettySize=auto;html=1;endArrow=none;endFill=0;" edge="1" parent="1" source="bQiC65SGVC0BOYGLnJeZ-13">
          <mxGeometry relative="1" as="geometry">
            <mxPoint x="-443" y="695" as="targetPoint" />
          </mxGeometry>
        </mxCell>
        <mxCell id="bQiC65SGVC0BOYGLnJeZ-13" value="www.mi-app.com" style="text;html=1;align=center;verticalAlign=middle;resizable=0;points=[];autosize=1;strokeColor=none;fillColor=none;" vertex="1" parent="1">
          <mxGeometry x="-498" y="750" width="110" height="30" as="geometry" />
        </mxCell>
        <mxCell id="bQiC65SGVC0BOYGLnJeZ-64" style="edgeStyle=orthogonalEdgeStyle;rounded=0;orthogonalLoop=1;jettySize=auto;html=1;endArrow=none;endFill=0;" edge="1" parent="1" source="bQiC65SGVC0BOYGLnJeZ-18" target="bQiC65SGVC0BOYGLnJeZ-63">
          <mxGeometry relative="1" as="geometry" />
        </mxCell>
        <mxCell id="bQiC65SGVC0BOYGLnJeZ-18" value="Amazon Cloudfront" style="sketch=0;outlineConnect=0;fontColor=#232F3E;gradientColor=none;strokeColor=#ffffff;fillColor=#232F3E;dashed=0;verticalLabelPosition=middle;verticalAlign=bottom;align=center;html=1;whiteSpace=wrap;fontSize=10;fontStyle=1;spacing=3;shape=mxgraph.aws4.productIcon;prIcon=mxgraph.aws4.cloudfront;" vertex="1" parent="1">
          <mxGeometry x="420" y="243.75" width="80" height="110" as="geometry" />
        </mxCell>
        <mxCell id="bQiC65SGVC0BOYGLnJeZ-22" value="AWS Auto Scaling" style="sketch=0;outlineConnect=0;fontColor=#232F3E;gradientColor=none;strokeColor=#ffffff;fillColor=#232F3E;dashed=0;verticalLabelPosition=middle;verticalAlign=bottom;align=center;html=1;whiteSpace=wrap;fontSize=10;fontStyle=1;spacing=3;shape=mxgraph.aws4.productIcon;prIcon=mxgraph.aws4.autoscaling;" vertex="1" parent="1">
          <mxGeometry x="-370" y="425" width="80" height="110" as="geometry" />
        </mxCell>
        <mxCell id="bQiC65SGVC0BOYGLnJeZ-25" value="Amazon EC2" style="sketch=0;outlineConnect=0;fontColor=#232F3E;gradientColor=none;strokeColor=#ffffff;fillColor=#232F3E;dashed=0;verticalLabelPosition=middle;verticalAlign=bottom;align=center;html=1;whiteSpace=wrap;fontSize=10;fontStyle=1;spacing=3;shape=mxgraph.aws4.productIcon;prIcon=mxgraph.aws4.ec2;" vertex="1" parent="1">
          <mxGeometry x="-170" y="437.5" width="80" height="100" as="geometry" />
        </mxCell>
        <mxCell id="bQiC65SGVC0BOYGLnJeZ-52" style="edgeStyle=orthogonalEdgeStyle;rounded=0;orthogonalLoop=1;jettySize=auto;html=1;entryX=0;entryY=0.5;entryDx=0;entryDy=0;" edge="1" parent="1" source="bQiC65SGVC0BOYGLnJeZ-32" target="bQiC65SGVC0BOYGLnJeZ-35">
          <mxGeometry relative="1" as="geometry" />
        </mxCell>
        <mxCell id="bQiC65SGVC0BOYGLnJeZ-53" style="edgeStyle=orthogonalEdgeStyle;rounded=0;orthogonalLoop=1;jettySize=auto;html=1;" edge="1" parent="1" source="bQiC65SGVC0BOYGLnJeZ-32" target="bQiC65SGVC0BOYGLnJeZ-36">
          <mxGeometry relative="1" as="geometry" />
        </mxCell>
        <mxCell id="bQiC65SGVC0BOYGLnJeZ-32" value="Amazon API Gateway" style="sketch=0;outlineConnect=0;fontColor=#232F3E;gradientColor=none;strokeColor=#ffffff;fillColor=#232F3E;dashed=0;verticalLabelPosition=middle;verticalAlign=bottom;align=center;html=1;whiteSpace=wrap;fontSize=10;fontStyle=1;spacing=3;shape=mxgraph.aws4.productIcon;prIcon=mxgraph.aws4.api_gateway;" vertex="1" parent="1">
          <mxGeometry x="280" y="480" width="80" height="110" as="geometry" />
        </mxCell>
        <mxCell id="bQiC65SGVC0BOYGLnJeZ-35" value="Micro Servicio 1" style="image;aspect=fixed;perimeter=ellipsePerimeter;html=1;align=center;shadow=0;dashed=0;fontColor=#4277BB;labelBackgroundColor=default;fontSize=12;spacingTop=3;image=img/lib/ibm/applications/microservice.svg;" vertex="1" parent="1">
          <mxGeometry x="420" y="470" width="41.1" height="30" as="geometry" />
        </mxCell>
        <mxCell id="bQiC65SGVC0BOYGLnJeZ-36" value="Micro Servicio 2" style="image;aspect=fixed;perimeter=ellipsePerimeter;html=1;align=center;shadow=0;dashed=0;fontColor=#4277BB;labelBackgroundColor=default;fontSize=12;spacingTop=3;image=img/lib/ibm/applications/microservice.svg;" vertex="1" parent="1">
          <mxGeometry x="420" y="560" width="41.1" height="30" as="geometry" />
        </mxCell>
        <mxCell id="bQiC65SGVC0BOYGLnJeZ-55" style="edgeStyle=orthogonalEdgeStyle;rounded=0;orthogonalLoop=1;jettySize=auto;html=1;exitX=1;exitY=0;exitDx=0;exitDy=0;endArrow=none;endFill=0;" edge="1" parent="1" source="bQiC65SGVC0BOYGLnJeZ-41" target="bQiC65SGVC0BOYGLnJeZ-48">
          <mxGeometry relative="1" as="geometry">
            <Array as="points">
              <mxPoint x="240" y="300" />
              <mxPoint x="240" y="300" />
            </Array>
          </mxGeometry>
        </mxCell>
        <mxCell id="bQiC65SGVC0BOYGLnJeZ-58" value="logs" style="edgeLabel;html=1;align=center;verticalAlign=middle;resizable=0;points=[];" vertex="1" connectable="0" parent="bQiC65SGVC0BOYGLnJeZ-55">
          <mxGeometry x="0.125" y="1" relative="1" as="geometry">
            <mxPoint x="43" y="1" as="offset" />
          </mxGeometry>
        </mxCell>
        <mxCell id="bQiC65SGVC0BOYGLnJeZ-41" value="Security group" style="fillColor=none;strokeColor=#DD3522;verticalAlign=top;fontStyle=0;fontColor=#DD3522;whiteSpace=wrap;html=1;" vertex="1" parent="1">
          <mxGeometry x="-190" y="300" width="120" height="250" as="geometry" />
        </mxCell>
        <mxCell id="bQiC65SGVC0BOYGLnJeZ-50" style="edgeStyle=orthogonalEdgeStyle;rounded=0;orthogonalLoop=1;jettySize=auto;html=1;endArrow=none;endFill=0;" edge="1" parent="1" source="bQiC65SGVC0BOYGLnJeZ-46" target="bQiC65SGVC0BOYGLnJeZ-49">
          <mxGeometry relative="1" as="geometry" />
        </mxCell>
        <mxCell id="bQiC65SGVC0BOYGLnJeZ-46" value="Volume" style="sketch=0;outlineConnect=0;fontColor=#232F3E;gradientColor=none;strokeColor=#232F3E;fillColor=#ffffff;dashed=0;verticalLabelPosition=bottom;verticalAlign=top;align=center;html=1;fontSize=12;fontStyle=0;aspect=fixed;shape=mxgraph.aws4.resourceIcon;resIcon=mxgraph.aws4.volume;" vertex="1" parent="1">
          <mxGeometry x="-10" y="348.75" width="60" height="60" as="geometry" />
        </mxCell>
        <mxCell id="bQiC65SGVC0BOYGLnJeZ-47" value="Volume" style="sketch=0;outlineConnect=0;fontColor=#232F3E;gradientColor=none;strokeColor=#232F3E;fillColor=#ffffff;dashed=0;verticalLabelPosition=bottom;verticalAlign=top;align=center;html=1;fontSize=12;fontStyle=0;aspect=fixed;shape=mxgraph.aws4.resourceIcon;resIcon=mxgraph.aws4.volume;" vertex="1" parent="1">
          <mxGeometry x="-10" y="431.25" width="60" height="60" as="geometry" />
        </mxCell>
        <mxCell id="bQiC65SGVC0BOYGLnJeZ-62" style="edgeStyle=orthogonalEdgeStyle;rounded=0;orthogonalLoop=1;jettySize=auto;html=1;endArrow=none;endFill=0;" edge="1" parent="1" source="bQiC65SGVC0BOYGLnJeZ-48" target="bQiC65SGVC0BOYGLnJeZ-18">
          <mxGeometry relative="1" as="geometry" />
        </mxCell>
        <mxCell id="bQiC65SGVC0BOYGLnJeZ-48" value="Amazon S3" style="sketch=0;outlineConnect=0;fontColor=#232F3E;gradientColor=none;strokeColor=#ffffff;fillColor=#232F3E;dashed=0;verticalLabelPosition=middle;verticalAlign=bottom;align=center;html=1;whiteSpace=wrap;fontSize=10;fontStyle=1;spacing=3;shape=mxgraph.aws4.productIcon;prIcon=mxgraph.aws4.s3;" vertex="1" parent="1">
          <mxGeometry x="280" y="248.75" width="80" height="100" as="geometry" />
        </mxCell>
        <mxCell id="bQiC65SGVC0BOYGLnJeZ-59" style="edgeStyle=orthogonalEdgeStyle;rounded=0;orthogonalLoop=1;jettySize=auto;html=1;endArrow=none;endFill=0;" edge="1" parent="1" source="bQiC65SGVC0BOYGLnJeZ-49" target="bQiC65SGVC0BOYGLnJeZ-48">
          <mxGeometry relative="1" as="geometry">
            <Array as="points">
              <mxPoint x="245" y="379" />
              <mxPoint x="245" y="330" />
            </Array>
          </mxGeometry>
        </mxCell>
        <mxCell id="bQiC65SGVC0BOYGLnJeZ-49" value="Amazon Elastic Block Store" style="sketch=0;outlineConnect=0;fontColor=#232F3E;gradientColor=none;strokeColor=#ffffff;fillColor=#232F3E;dashed=0;verticalLabelPosition=middle;verticalAlign=bottom;align=center;html=1;whiteSpace=wrap;fontSize=10;fontStyle=1;spacing=3;shape=mxgraph.aws4.productIcon;prIcon=mxgraph.aws4.elastic_block_store;" vertex="1" parent="1">
          <mxGeometry x="130" y="323.75" width="80" height="110" as="geometry" />
        </mxCell>
        <mxCell id="bQiC65SGVC0BOYGLnJeZ-54" style="edgeStyle=orthogonalEdgeStyle;rounded=0;orthogonalLoop=1;jettySize=auto;html=1;exitX=1;exitY=1;exitDx=0;exitDy=0;entryX=0;entryY=0.64;entryDx=0;entryDy=0;entryPerimeter=0;endArrow=none;endFill=0;" edge="1" parent="1" source="bQiC65SGVC0BOYGLnJeZ-41" target="bQiC65SGVC0BOYGLnJeZ-32">
          <mxGeometry relative="1" as="geometry">
            <Array as="points">
              <mxPoint x="40" y="550" />
              <mxPoint x="40" y="550" />
            </Array>
          </mxGeometry>
        </mxCell>
        <mxCell id="bQiC65SGVC0BOYGLnJeZ-63" value="media.mi-app.com" style="text;html=1;align=center;verticalAlign=middle;resizable=0;points=[];autosize=1;strokeColor=none;fillColor=none;" vertex="1" parent="1">
          <mxGeometry x="530" y="283.75" width="120" height="30" as="geometry" />
        </mxCell>
      </root>
    </mxGraphModel>
  </diagram>
</mxfile>
